<svg width="40" height="41" viewBox="0 0 40 41" fill="none" xmlns="http://www.w3.org/2000/svg">
<path fill-rule="evenodd" clip-rule="evenodd" d="M37.9118 38.7463C37.9118 38.7463 39.8605 5.06456 2.00335 2.00256C2.00335 2.00256 17.3132 12.8586 13.6945 25.1065C13.6945 25.1065 27.0559 22.8797 37.9118 38.7463ZM1.58875 2.26417C1.58875 2.26417 -0.359849 35.9458 37.4973 39.0078C37.4973 39.0078 22.1875 28.1518 25.8062 15.9039C25.8062 15.9039 12.4448 18.1308 1.58875 2.26417V2.26417Z" fill="url(#paint0_linear_62_3)"/>
<path fill-rule="evenodd" clip-rule="evenodd" d="M0.351449 39.9889C0.351449 39.9889 -0.20765 30.2892 4.91425 20.5053C6.43215 23.4052 8.44825 26.3121 11.1267 28.9765C7.29165 35.6599 0.79435 40.2683 0.79435 40.2683C8.58785 39.6379 14.7976 37.79 19.7502 35.2211C16.4093 33.4882 13.6388 31.4282 11.3461 29.1885C7.75825 31.3751 3.92765 34.7621 0.351449 39.9889V39.9889ZM11.1267 12.034C11.1984 11.9627 11.2735 11.893 11.3461 11.822C14.4327 13.7034 17.3391 14.696 19.7502 15.2047C15.8761 16.0221 13.2819 15.5904 13.2819 15.5904C13.7753 17.2602 13.9376 18.9056 13.8482 20.506C13.6788 17.4716 12.5993 14.5999 11.1267 12.034V12.034ZM19.7502 5.78937C24.7042 3.22097 30.9128 1.37237 38.7063 0.742065C38.7063 0.742065 32.2093 5.35057 28.3738 12.034C31.0529 14.6983 33.0682 17.6054 34.5863 20.5053C39.7075 10.721 39.1492 1.02147 39.1492 1.02147C35.573 6.24827 31.7425 9.63487 28.1544 11.822C25.861 9.58247 23.092 7.52197 19.7502 5.78937V5.78937ZM25.6523 20.506C25.5629 22.1057 25.7256 23.7507 26.2188 25.42C26.2188 25.42 23.6242 24.9889 19.7502 25.8057C22.1613 26.3141 25.068 27.3073 28.1544 29.1885C28.2269 29.1177 28.3021 29.0478 28.3738 28.9765C26.9015 26.4109 25.8217 23.54 25.6523 20.506V20.506Z" fill="url(#paint1_linear_62_3)"/>
<defs>
<linearGradient id="paint0_linear_62_3" x1="1.57175" y1="20.5053" x2="37.9288" y2="20.5053" gradientUnits="userSpaceOnUse">
<stop stop-color="#5F08BA"/>
<stop offset="1" stop-color="#15125D"/>
</linearGradient>
<linearGradient id="paint1_linear_62_3" x1="0.333449" y1="20.5053" x2="39.1671" y2="20.5053" gradientUnits="userSpaceOnUse">
<stop stop-color="#15125D"/>
<stop offset="1" stop-color="#5F07B7"/>
</linearGradient>
</defs>
</svg>
