<?xml version="1.0" encoding="UTF-8"?>
<!DOCTYPE svg PUBLIC "-//W3C//DTD SVG 1.1//EN" "http://www.w3.org/Graphics/SVG/1.1/DTD/svg11.dtd">
<!-- Creator: CorelDRAW 2021.5 (Evaluation Version) -->
<svg xmlns="http://www.w3.org/2000/svg" xml:space="preserve" width="210mm" height="297mm" version="1.1" style="shape-rendering:geometricPrecision; text-rendering:geometricPrecision; image-rendering:optimizeQuality; fill-rule:evenodd; clip-rule:evenodd"
viewBox="0 0 21000 29700"
 xmlns:xlink="http://www.w3.org/1999/xlink"
 xmlns:xodm="http://www.corel.com/coreldraw/odm/2003">
 <defs>
  <style type="text/css">
   <![CDATA[
    .fil1 {fill:#FEFEFE}
    .fil0 {fill:#FEFEFE;fill-rule:nonzero}
   ]]>
  </style>
 </defs>
 <g id="Layer_x0020_1">
  <metadata id="CorelCorpID_0Corel-Layer"/>
  <path class="fil0" d="M10436.54 15725.02l-822.89 0 -277.83 619.44 -752.28 0 1405.12 -3037.97 957.24 0 466.09 3037.97 -895.76 0 -79.69 -619.44zm-63.02 -628.55l-116.14 -879.8 -396.26 879.8 512.4 0zm2634.89 -1789.98l-505.58 3037.97 -854.76 0 505.57 -3037.97 854.77 0zm1320.85 0l-505.58 3037.97 -854.76 0 505.57 -3037.97 854.77 0zm2196.85 1313.26l-660.42 144.23c-50.11,-145.75 -188.27,-218.61 -414.48,-218.61 -157.89,0 -236.85,44.78 -236.85,133.6 0,78.19 75.92,131.33 228.5,157.89 311.24,53.14 530.61,111.59 658.15,176.11 126.77,63.78 223.18,145 287.7,243.68 64.52,97.93 96.42,210.28 96.42,334.76 0,225.47 -94.14,415.24 -283.15,570.86 -189.03,154.87 -475.98,232.29 -860.84,232.29 -286.19,0 -535.94,-56.18 -748.49,-167.76 -212.55,-112.35 -345.39,-280.12 -398.53,-504.06l701.42 -102.47c54.66,160.93 211.79,241.39 471.41,241.39 100.96,0 176.12,-14.42 224.7,-43.26 49.34,-28.86 73.63,-62.26 73.63,-99.45 0,-34.92 -15.94,-61.48 -48.58,-78.18 -32.65,-17.46 -115.39,-40.24 -247.47,-69.08 -262.66,-58.46 -450.16,-110.08 -560.99,-157.15 -110.83,-47.06 -205.71,-121.46 -283.15,-223.93 -78.18,-102.48 -116.89,-220.9 -116.89,-356.03 0,-230.01 91.09,-419.02 273.27,-567.81 182.19,-148.02 428.9,-222.42 740.14,-222.42 283.15,0 524.54,54.66 724.19,163.21 200.4,108.54 327.17,245.95 380.31,412.19z"/>
  <path class="fil1" d="M7291.17 16674.63c0,0 194.86,-3368.17 -3590.85,-3674.37 0,0 1530.98,1085.6 1169.11,2310.39 0,0 1336.14,-222.68 2421.74,1363.98zm-3632.31 -3648.21c0,0 -194.86,3368.16 3590.85,3674.36 0,0 -1530.98,-1085.6 -1169.11,-2310.39 0,0 -1336.14,222.69 -2421.74,-1363.97z"/>
  <path class="fil1" d="M3535.14 16798.89c0,0 -55.91,-969.97 456.28,-1948.36 151.79,289.99 353.4,580.68 621.25,847.12 -383.51,668.34 -1033.24,1129.18 -1033.24,1129.18 779.35,-63.04 1400.32,-247.83 1895.59,-504.72 -334.09,-173.29 -611.14,-379.29 -840.41,-603.26 -358.79,218.66 -741.85,557.36 -1099.47,1080.04zm1077.52 -2795.49c7.17,-7.13 14.69,-14.1 21.95,-21.2 308.66,188.14 599.3,287.4 840.41,338.27 -387.41,81.74 -646.84,38.57 -646.84,38.57 49.34,166.98 65.58,331.52 56.64,491.56 -16.94,-303.44 -124.9,-590.61 -272.16,-847.2zm862.36 -624.46c495.4,-256.84 1116.25,-441.7 1895.6,-504.73 0,0 -649.69,460.85 -1033.24,1129.19 267.91,266.43 469.43,557.14 621.24,847.13 512.12,-978.43 456.29,-1948.38 456.29,-1948.38 -357.62,522.68 -740.67,861.34 -1099.48,1080.05 -229.34,-223.95 -506.23,-430 -840.41,-603.26zm590.2 1471.66c-8.94,159.97 7.33,324.47 56.65,491.4 0,0 -259.45,-43.11 -646.85,38.57 241.11,50.84 531.77,150.16 840.41,338.28 7.25,-7.08 14.77,-14.07 21.94,-21.2 -147.23,-256.56 -255.21,-543.65 -272.15,-847.05z"/>
 </g>
</svg>
